<svg width="20" height="21" viewBox="0 0 20 21" fill="none" xmlns="http://www.w3.org/2000/svg">
<path opacity="0.01" d="M0 0.5H20V20.5H0V0.5Z" fill="black"/>
<path d="M14.5748 8.27522V19.25C14.5748 19.9404 14.0151 20.5 13.3248 20.5H2.49998C1.80963 20.5 1.25 19.9404 1.25 19.25V5.36277C1.25 4.67243 1.80963 4.11279 2.49998 4.11279H10.3748L14.5748 8.27522Z" fill="black" fill-opacity="0.38"/>
<path d="M15.7874 0.500366H5.00006C4.48306 0.490292 3.98375 0.688645 3.6146 1.05074C3.24545 1.41284 3.0375 1.90823 3.0376 2.42533V2.55033H4.28758V2.42533C4.27944 2.23725 4.35326 2.05488 4.48993 1.9254C4.6266 1.79592 4.81269 1.73207 5.00006 1.75034H15.8249C15.9961 1.75031 16.1602 1.81919 16.2801 1.94146C16.4 2.06373 16.4657 2.2291 16.4624 2.40033V16.2876C16.4624 16.4567 16.3952 16.6188 16.2756 16.7384C16.1561 16.8579 15.9939 16.9251 15.8249 16.9251H15.7374V18.175H15.8249C16.8783 18.1682 17.7305 17.316 17.7373 16.2626V2.42533C17.7374 1.91044 17.5311 1.41699 17.1647 1.05526C16.7983 0.693531 16.3022 0.493679 15.7874 0.500366Z" fill="black" fill-opacity="0.38"/>
<path fill-rule="evenodd" clip-rule="evenodd" d="M7.86248 9.9876H3.90005C3.60236 9.92777 3.38818 9.66626 3.38818 9.36261C3.38818 9.05897 3.60236 8.79746 3.90005 8.73763H7.86248C8.11557 8.68676 8.37435 8.79354 8.51792 9.00809C8.66148 9.22264 8.66148 9.50259 8.51792 9.71714C8.37435 9.93169 8.11557 10.0385 7.86248 9.9876ZM10.9249 13.525H3.90005C3.60236 13.4652 3.38818 13.2037 3.38818 12.9001C3.38818 12.5964 3.60236 12.3349 3.90005 12.2751H10.9249C11.178 12.2242 11.4368 12.331 11.5804 12.5455C11.7239 12.7601 11.7239 13.04 11.5804 13.2546C11.4368 13.4691 11.178 13.5759 10.9249 13.525ZM3.90005 17.0625H10.9249C11.2226 17.0026 11.4368 16.7411 11.4368 16.4375C11.4368 16.1338 11.2226 15.8723 10.9249 15.8125H3.90005C3.60236 15.8723 3.38818 16.1338 3.38818 16.4375C3.38818 16.7411 3.60236 17.0026 3.90005 17.0625Z" fill="white"/>
</svg>
