<svg width="19" height="14" viewBox="0 0 19 14" fill="none" xmlns="http://www.w3.org/2000/svg">
<path fill-rule="evenodd" clip-rule="evenodd" d="M13.9703 13.5211L12.9006 12.2173C15.0237 11.6217 15.8341 10.3018 15.8341 10.3018C15.1696 10.7364 14.5375 11.0423 13.9703 11.2515C13.1599 11.5896 12.382 11.8149 11.6203 11.9437C10.0644 12.2334 8.63824 12.1529 7.42273 11.9276C6.49894 11.7505 5.7048 11.493 5.04032 11.2354C4.66757 11.0906 4.2624 10.9135 3.85723 10.6882L3.7924 10.6514L3.77619 10.6445L3.71136 10.6077L3.64654 10.5594L3.19275 10.2857C3.19275 10.2857 3.97067 11.5735 6.02894 12.1851L4.94308 13.5211C1.36137 13.4085 0 11.0745 0 11.0745C0 5.89142 2.33378 1.69026 2.33378 1.69026C4.66757 -0.0481562 6.8879 0.000133771 6.8879 0.000133771L7.04997 0.19329C4.13274 1.0303 2.78757 2.30192 2.78757 2.30192L3.74378 1.83513C5.47791 1.07859 6.85549 0.869341 7.42273 0.821052L7.69824 0.788857C8.68686 0.660086 9.80513 0.627893 10.972 0.756664C12.5117 0.933725 14.1648 1.38442 15.8503 2.30192C15.8503 2.30192 14.5699 1.09469 11.8148 0.257675L12.0417 0.000133771C12.0417 0.000133771 14.262 -0.0481562 16.5958 1.69026C16.5958 1.69026 18.9296 5.89142 18.9296 11.0745C18.9296 11.0745 17.6029 13.3211 13.9703 13.5211ZM12.3496 6.0041C11.4258 6.0041 10.6965 6.80892 10.6965 7.7908C10.6965 8.77268 11.442 9.5775 12.3496 9.5775C13.2734 9.5775 14.0027 8.77268 14.0027 7.7908C14.0027 6.80892 13.2734 6.0041 12.3496 6.0041ZM6.43411 6.0041C5.51032 6.0041 4.78101 6.80892 4.78101 7.7908C4.78101 8.77268 5.52653 9.5775 6.43411 9.5775C7.3579 9.5775 8.08721 8.77268 8.08721 7.7908C8.10341 6.80892 7.3579 6.0041 6.43411 6.0041Z" fill="white"/>
</svg>
