<svg width="21" height="21" viewBox="0 0 21 21" fill="none" xmlns="http://www.w3.org/2000/svg">
<g clip-path="url(#clip0_1903_1535)">
<path d="M21.0002 17.0431C20.9445 17.0139 20.9583 16.9596 20.9583 16.9149C20.9583 15.3178 20.96 13.7205 20.9633 12.1231C20.9756 12.1228 20.9879 12.1242 20.9998 12.1273L21.0002 17.0431Z" fill="#FFDEE5"/>
<path d="M17.0355 20.9648C17.0331 20.9764 17.0316 20.9881 17.0309 20.9999H12.1001C12.1236 20.9535 12.1675 20.9581 12.2086 20.9581L17.0355 20.9648Z" fill="#FFDEE5"/>
<path d="M8.13685 12.1256C8.13462 12.3483 8.13239 12.571 8.13015 12.7937C8.0778 12.8918 7.98273 12.8814 7.89352 12.8872C7.22782 12.933 6.57142 13.0686 5.94224 13.2902C5.82078 13.332 5.77011 13.3867 5.82246 13.5186C6.13867 14.3162 6.52063 15.0712 7.15053 15.6788C7.37443 15.8969 7.63872 16.0695 7.9287 16.187C7.99906 16.2158 8.07529 16.2321 8.12889 16.2922C8.13085 16.5428 8.13308 16.7942 8.1356 17.0464C6.13657 16.9504 4.38465 16.2367 2.88947 14.9167C1.41104 13.6134 0.482936 11.9844 0.142437 10.0435C-0.268844 7.69956 0.209448 5.53354 1.59155 3.59135C2.87104 1.79573 4.60705 0.644858 6.76815 0.198041C9.42723 -0.351503 11.8405 0.245228 13.9467 1.95608C15.6588 3.34789 16.6464 5.16899 16.9748 7.34294C17.0211 7.61675 17.0421 7.89422 17.0376 8.17185L16.3218 8.16559C16.2226 8.00983 16.2544 7.82818 16.2347 7.66031C16.0358 5.97827 15.3606 4.5163 14.2244 3.26229C14.0213 3.03805 14.0062 3.03805 13.7695 3.22638C13.3518 3.55088 12.905 3.83632 12.4348 4.07909C12.2882 4.15718 12.2572 4.24612 12.2987 4.39645C12.4919 5.09256 12.6319 5.80226 12.7175 6.51946C12.7768 6.98032 12.8127 7.44388 12.8251 7.90835C12.8251 7.99688 12.8394 8.09084 12.7711 8.16601L12.1039 8.17352C11.969 8.13803 12.0051 8.02236 11.9996 7.93466C11.9456 7.06107 11.8614 6.19166 11.6746 5.33477C11.6269 5.11763 11.5712 4.90257 11.5197 4.68668C11.4903 4.56391 11.4292 4.533 11.3081 4.57226C10.5941 4.80976 9.85355 4.95939 9.10307 5.01782C8.92675 5.03035 8.90497 5.12598 8.90539 5.26837C8.90539 5.8793 8.90539 6.49023 8.90539 7.10116C8.90539 7.3371 8.90539 7.57303 8.90539 7.81106C8.90539 8.09543 8.91711 8.10754 9.19605 8.10796C10.0387 8.10796 10.881 8.10796 11.7236 8.11088C11.825 8.11088 11.9502 8.06913 12.0134 8.20275C11.7358 8.28376 11.5821 8.52012 11.3852 8.70052L11.1825 8.8805C11.0757 8.94272 10.958 8.94397 10.8391 8.94397C10.2904 8.94397 9.74177 8.94188 9.19311 8.94397C8.9301 8.94397 8.90874 8.96652 8.90706 9.22876C8.90455 9.7758 8.90706 10.3228 8.90706 10.8699C8.90706 10.9885 8.90706 11.1058 8.8434 11.2123C8.69891 11.3618 8.55777 11.5146 8.40825 11.6591C8.29612 11.7635 8.2113 11.8937 8.16114 12.0383C8.02796 11.9748 8.06942 11.85 8.06858 11.7481C8.0644 10.9501 8.06649 10.1516 8.06649 9.3532C8.06649 9.29098 8.06188 9.22793 8.06649 9.16612C8.07947 8.99283 7.99655 8.93687 7.82986 8.93771C6.97337 8.94188 6.11731 8.93771 5.26082 8.94063C5.03843 8.94063 5.01414 8.96401 5.01916 9.20078C5.04182 10.0823 5.14982 10.9595 5.34165 11.8203C5.37684 11.9832 5.40867 12.1469 5.45222 12.3076C5.51295 12.5331 5.53599 12.5519 5.75461 12.4793C6.36256 12.2764 6.99134 12.142 7.62924 12.0784C7.7997 12.0621 7.97686 12.0178 8.13685 12.1256Z" fill="#9B96FF"/>
<path d="M12.7696 8.16762C12.7592 6.89699 12.5805 5.6333 12.2381 4.40934C12.1845 4.21767 12.2155 4.12747 12.4056 4.03351C12.9386 3.76495 13.4396 3.43745 13.8991 3.05719C13.9942 2.97827 14.0399 2.99289 14.1152 3.07265C14.6023 3.57558 15.0215 4.13961 15.3625 4.75051C15.7349 5.4233 16.0054 6.14729 16.1654 6.89899C16.2529 7.31658 16.3291 7.73876 16.3224 8.16929L12.7696 8.16762Z" fill="#2F2D6C"/>
<path d="M8.13693 12.1262C7.29553 12.122 6.48553 12.2961 5.69815 12.5743C5.50256 12.6432 5.45356 12.593 5.41 12.4072C5.20688 11.5541 5.05108 10.6951 4.99119 9.81819C4.97234 9.55552 4.96857 9.2937 4.95601 9.03145C4.95056 8.91453 4.99537 8.87402 5.11264 8.87402C6.06615 8.87736 7.01967 8.87736 7.97318 8.87402C8.12982 8.87402 8.13484 8.95295 8.13484 9.06945C8.13233 9.98508 8.13233 10.901 8.13484 11.8172C8.13484 11.8911 8.11055 11.9708 8.165 12.0381C8.16954 12.0539 8.1693 12.0707 8.16431 12.0864C8.15932 12.102 8.14979 12.1159 8.13693 12.1262Z" fill="#2F2D6C"/>
<path d="M12.0127 8.20073C11.9453 8.14686 11.8653 8.17108 11.7911 8.17108C10.8865 8.17108 9.98184 8.16565 9.07761 8.17358C8.90338 8.17358 8.83511 8.14227 8.8372 7.94809C8.84768 7.02522 8.846 6.10236 8.8372 5.17991C8.8372 5.00744 8.88663 4.96569 9.05834 4.95566C9.84644 4.90537 10.6238 4.74701 11.3685 4.48504C11.5038 4.43869 11.5294 4.47126 11.5599 4.59153C11.7576 5.3674 11.9126 6.14996 11.9788 6.95006C12.0085 7.31419 12.0567 7.67666 12.0575 8.0433C12.0575 8.09216 12.0575 8.14101 12.1019 8.17567C12.0905 8.1873 12.0763 8.19574 12.0607 8.20013C12.045 8.20453 12.0285 8.20474 12.0127 8.20073Z" fill="#2F2D6C"/>
<path d="M20.9795 16.8187C20.9795 15.3293 20.9795 13.8399 20.9795 12.3505C20.9795 12.2754 20.9933 12.1981 20.9652 12.1242C20.9489 11.9154 20.8228 11.7705 20.6825 11.631C19.6439 10.5965 18.6062 9.56107 17.5695 8.52462C17.4145 8.36928 17.2495 8.23941 17.038 8.1751C16.8068 8.04314 16.5563 8.12582 16.3147 8.1087C15.142 8.09924 13.9685 8.09924 12.7941 8.1087C12.5809 8.1087 12.3673 8.09618 12.1546 8.12123C12.1093 8.12833 12.0674 8.14629 12.023 8.15631C11.8609 8.19812 11.7144 8.28587 11.6013 8.40895C11.4568 8.55761 11.3081 8.70376 11.1599 8.84825C10.3781 9.62997 9.59627 10.4095 8.81447 11.1867C8.71186 11.2903 8.61009 11.3955 8.50538 11.4962C8.34037 11.6561 8.17033 11.8127 8.11756 12.0495C8.10541 12.0912 8.09159 12.1359 8.08363 12.1806C8.06786 12.393 8.06423 12.6062 8.07274 12.8191C8.0606 13.975 8.06353 15.1308 8.07274 16.2871C8.06564 16.3685 8.06438 16.4503 8.06898 16.5318C8.08405 16.7043 8.01955 16.888 8.13934 17.0463C8.203 17.2572 8.33325 17.4221 8.48905 17.575C9.42469 18.5012 10.3577 19.4302 11.288 20.3619C11.5255 20.5987 11.7429 20.8605 12.0624 20.9988H12.1043C12.1763 20.957 12.2547 20.9787 12.3296 20.9787C13.8678 20.977 15.4064 20.977 16.9454 20.9787C17.1812 21.0059 17.3546 20.9027 17.5167 20.7403C18.5797 19.6738 19.6458 18.6106 20.7152 17.5507C20.8517 17.4159 20.9598 17.2718 21.0042 17.0843V17.0425C20.9594 16.9716 20.9795 16.8935 20.9795 16.8187ZM14.551 18.8403C14.4571 18.8405 14.3641 18.8218 14.2776 18.7854C14.191 18.749 14.1128 18.6955 14.0474 18.6282C13.9821 18.5609 13.9311 18.4812 13.8973 18.3938C13.8636 18.3064 13.8479 18.2131 13.8512 18.1195C13.8544 17.9341 13.9302 17.7572 14.0625 17.6268C14.1948 17.4964 14.373 17.4228 14.559 17.4217C14.7486 17.4234 14.93 17.4995 15.0637 17.6335C15.1975 17.7676 15.2728 17.9488 15.2735 18.1379C15.2733 18.2316 15.2543 18.3243 15.2177 18.4106C15.1811 18.4969 15.1276 18.5751 15.0603 18.6405C14.9931 18.7059 14.9133 18.7573 14.8259 18.7916C14.7384 18.8259 14.645 18.8424 14.551 18.8403ZM15.2718 15.2991C15.2681 15.4677 15.2044 15.6294 15.092 15.7554C14.9796 15.8813 14.8259 15.9633 14.6584 15.9866C14.491 16.0099 14.3206 15.9731 14.178 15.8826C14.0353 15.7921 13.9295 15.654 13.8797 15.4929C13.8577 15.4058 13.8482 15.3162 13.8512 15.2265C13.8495 13.8465 13.8495 12.4666 13.8512 11.0869C13.8512 10.6276 14.1494 10.3081 14.5653 10.3106C14.9812 10.3131 15.2739 10.6351 15.2748 11.0953C15.2748 11.7889 15.2748 12.4821 15.2748 13.1757C15.2739 13.8848 15.2785 14.5917 15.2718 15.2991Z" fill="#DD3F5E"/>
<path d="M8.12898 16.2935C7.78429 16.2317 7.49321 16.0604 7.23606 15.8341C6.62374 15.2967 6.22545 14.6123 5.91091 13.8735C5.84893 13.7274 5.79574 13.5775 5.73291 13.4313C5.69648 13.3478 5.72203 13.3106 5.80746 13.2806C6.35447 13.0844 6.92081 12.9467 7.49698 12.8697C7.70639 12.8425 7.92669 12.8718 8.13149 12.7949L8.12898 16.2935Z" fill="#2F2D6C"/>
<path d="M8.8448 11.2131C8.8448 10.5061 8.8448 9.79915 8.83936 9.09218C8.83936 8.92932 8.8938 8.87337 9.05714 8.87504C9.7662 8.88214 10.4753 8.87963 11.1843 8.88046C10.4168 9.66942 9.63693 10.447 8.8448 11.2131Z" fill="#2F2D6C"/>
<path d="M2.46205 8.87751C2.9839 8.87751 3.50616 8.88211 4.02801 8.87501C4.19051 8.87292 4.24664 8.92721 4.24789 9.09132C4.25608 10.3207 4.4335 11.5431 4.77519 12.7243C4.81455 12.8613 4.79864 12.9398 4.64954 13.0125C4.11751 13.2681 3.6197 13.5892 3.16776 13.9683C3.04211 14.0765 2.95249 14.0819 2.82684 13.9462C1.84303 12.8813 1.1591 11.6611 0.855879 10.2355C0.771648 9.85878 0.715651 9.47633 0.688351 9.09132C0.677462 8.91009 0.747404 8.87125 0.914932 8.87417C1.43134 8.88378 1.9469 8.87751 2.46205 8.87751Z" fill="#2F2D6C"/>
<path d="M2.43728 8.16946C1.9012 8.16946 1.36553 8.16696 0.829438 8.16946C0.709237 8.16946 0.677825 8.15443 0.684108 8.01162C0.73646 6.86242 1.07152 5.79841 1.6164 4.79328C1.95165 4.17058 2.37478 3.59907 2.87285 3.09621C2.97212 2.9964 3.03578 2.99432 3.14844 3.08827C3.57735 3.45149 4.0506 3.75918 4.55693 4.00404C4.76634 4.10343 4.80822 4.20991 4.74372 4.42163C4.50792 5.21045 4.38856 6.02307 4.29433 6.83736C4.25244 7.21319 4.21726 7.5957 4.24658 7.97654C4.25873 8.13564 4.198 8.17698 4.04471 8.17489C3.50904 8.16445 2.97379 8.16946 2.43728 8.16946Z" fill="#2F2D6C"/>
<path d="M8.13142 6.57049C8.13142 7.04237 8.12598 7.51382 8.13435 7.98528C8.13687 8.13394 8.08493 8.17319 7.94211 8.17235C7.00982 8.16734 6.07767 8.16734 5.14566 8.17235C4.98065 8.17235 4.95133 8.1118 4.95217 7.96356C4.9597 7.01439 5.10168 6.08233 5.29979 5.15696C5.33874 4.97531 5.4024 4.79867 5.4359 4.6141C5.46396 4.46419 5.52302 4.43955 5.6629 4.48883C6.02897 4.61989 6.40392 4.72483 6.78492 4.80285C7.17053 4.881 7.56111 4.93249 7.95384 4.95694C8.10797 4.96738 8.13645 5.02208 8.13477 5.15696C8.12765 5.62717 8.13142 6.09737 8.13142 6.57049Z" fill="#2F2D6C"/>
<path d="M8.84191 2.50561C8.84191 1.9924 8.84735 1.4796 8.83897 0.966804C8.83604 0.799769 8.8641 0.7459 9.04336 0.811044C9.49568 0.97599 9.84958 1.27373 10.1482 1.63202C10.6353 2.21664 10.9745 2.88854 11.2371 3.60094C11.284 3.72621 11.2606 3.77465 11.1479 3.80973C10.6747 3.96424 10.1968 4.10204 9.70132 4.16969C9.4827 4.19934 9.26324 4.22398 9.04461 4.25321C8.89719 4.27283 8.83521 4.22857 8.83521 4.06362C8.84819 3.54331 8.84191 3.02342 8.84191 2.50561Z" fill="#2F2D6C"/>
<path d="M8.13158 2.51551C8.13158 3.0354 8.12614 3.55572 8.13451 4.07519C8.13703 4.23179 8.07127 4.26728 7.93599 4.25183C7.23405 4.1704 6.54091 4.05264 5.87121 3.81713C5.733 3.76869 5.70997 3.72693 5.76483 3.58369C6.01613 2.92767 6.31726 2.29795 6.75953 1.74882C7.06904 1.36381 7.42503 1.02306 7.8962 0.83013C8.10561 0.743272 8.13116 0.756635 8.13116 0.977121C8.13172 1.48964 8.13186 2.00243 8.13158 2.51551Z" fill="#2F2D6C"/>
<path d="M10.5544 1.00488C11.1356 1.14963 11.6959 1.3677 12.2218 1.65381C12.5741 1.84679 12.9134 2.06259 13.2374 2.29982C13.4497 2.45307 13.4531 2.50652 13.2521 2.65644C12.8788 2.93161 12.4882 3.18268 12.0827 3.40809C11.9872 3.46196 11.934 3.45236 11.8968 3.34504C11.6383 2.59965 11.248 1.92524 10.7689 1.30095C10.7044 1.21493 10.6018 1.15563 10.5544 1.00488Z" fill="#2F2D6C"/>
<path d="M6.40423 15.9784C6.38161 16.0715 6.32047 16.044 6.27146 16.0294C6.05996 15.9621 5.84594 15.9016 5.64114 15.8181C4.95291 15.5401 4.30332 15.1752 3.70829 14.7323C3.58265 14.6375 3.55165 14.5565 3.69656 14.4471C4.06992 14.173 4.45911 13.9211 4.86214 13.6926C5.01166 13.6049 5.06652 13.6395 5.12264 13.7986C5.39412 14.5693 5.80666 15.2831 6.33931 15.9037L6.40423 15.9784Z" fill="#2F2D6C"/>
<path d="M6.41063 0.995117C6.00298 1.50927 5.65195 2.06563 5.36358 2.65461C5.26139 2.8659 5.18098 3.08764 5.09596 3.30688C5.05408 3.41795 5.00926 3.4547 4.88655 3.3883C4.44221 3.14532 4.01763 2.86803 3.61669 2.55898C3.5568 2.51388 3.5367 2.4788 3.61669 2.41867C4.24869 1.93677 4.92005 1.52503 5.6689 1.24943C5.91349 1.15839 6.16311 1.07947 6.41063 0.995117Z" fill="#2F2D6C"/>
</g>
<defs>
<clipPath id="clip0_1903_1535">
<rect width="21" height="21" fill="white"/>
</clipPath>
</defs>
</svg>
