<svg width="13" height="8" viewBox="0 0 13 8" fill="none" xmlns="http://www.w3.org/2000/svg">
<g clip-path="url(#clip0_2498_1194)">
<path d="M1.66581 0C1.15992 0 0.75 0.379193 0.75 0.84717V7.15283C0.75 7.62081 1.15992 8 1.66581 8H11.8342C12.3401 8 12.75 7.62081 12.75 7.15283V0.84717C12.75 0.379193 12.3401 0 11.8342 0H1.66581ZM5.07004 7.11149H1.70793V6.22264H4.10955V5.33412H2.6688V4.44561H5.07004V7.11149ZM11.7891 7.11149H6.03091V6.22264H10.8286V5.33412H9.40218V4.44561H11.7891V7.11149ZM8.42703 4.44561V5.33412H6.04007V4.4429H7.00093V4.44561H8.42703ZM8.42996 0.888512H10.8312V1.77702H9.39045V2.66554H11.7921V3.55439H8.42996V0.888512ZM5.07297 0.888512H6.49907V0.885801H7.45993V1.77702H5.07297V0.888512ZM1.71086 0.888512H4.09782V1.77702H2.67136V2.66554H7.46909V3.55439H1.71086V0.888512Z" fill="#0DF8DC"/>
</g>
<defs>
<clipPath id="clip0_2498_1194">
<rect width="12" height="8" fill="white" transform="translate(0.75)"/>
</clipPath>
</defs>
</svg>
