<svg width="62" height="62" viewBox="0 0 62 62" fill="none" xmlns="http://www.w3.org/2000/svg">
<circle cx="31" cy="31" r="30" fill="#16182D" stroke="#20253E" stroke-width="2"/>
<path fill-rule="evenodd" clip-rule="evenodd" d="M40.7071 35.5782C41.0976 35.9492 41.0976 36.5508 40.7071 36.9218L36.7071 40.7218C36.3166 41.0928 35.6834 41.0928 35.2929 40.7218L31.2929 36.9218C30.9024 36.5508 30.9024 35.9492 31.2929 35.5782C31.6834 35.2072 32.3166 35.2072 32.7071 35.5782L35 37.7565L35 28.65C35 28.1253 35.4477 27.7 36 27.7C36.5523 27.7 37 28.1253 37 28.65L37 37.7565L39.2929 35.5782C39.6834 35.2072 40.3166 35.2072 40.7071 35.5782ZM30.7071 27.4218C30.3166 27.7927 29.6834 27.7927 29.2929 27.4218L27 25.2435L27 34.35C27 34.8747 26.5523 35.3 26 35.3C25.4477 35.3 25 34.8747 25 34.35L25 25.2435L22.7071 27.4218C22.3166 27.7927 21.6834 27.7927 21.2929 27.4218C20.9024 27.0508 20.9024 26.4492 21.2929 26.0782L25.2929 22.2782C25.6834 21.9072 26.3166 21.9072 26.7071 22.2782L30.7071 26.0782C31.0976 26.4492 31.0976 27.0508 30.7071 27.4218Z" fill="white"/>
</svg>
