<svg width="21" height="20" viewBox="0 0 21 20" fill="none" xmlns="http://www.w3.org/2000/svg">
<path d="M10.1408 0C4.54141 0 0 4.54056 0 10.1408C0 14.6214 2.90535 18.4225 6.93549 19.7637C7.44169 19.8575 7.60563 19.5431 7.60563 19.2761V17.3882C4.78479 18.0017 4.19746 16.1915 4.19746 16.1915C3.73606 15.0194 3.07099 14.7076 3.07099 14.7076C2.1507 14.078 3.14113 14.0915 3.14113 14.0915C4.15944 14.1625 4.69521 15.1369 4.69521 15.1369C5.59944 16.6868 7.06732 16.2389 7.6462 15.9794C7.73662 15.3245 7.99944 14.8766 8.29014 14.6239C6.03803 14.3662 3.67014 13.4966 3.67014 9.61183C3.67014 8.50394 4.06648 7.59972 4.71465 6.88986C4.60986 6.6338 4.26254 5.60197 4.81352 4.20592C4.81352 4.20592 5.66535 3.9338 7.6031 5.24535C8.41183 5.02056 9.27887 4.90817 10.1408 4.90394C11.0028 4.90817 11.8707 5.02056 12.6811 5.24535C14.6172 3.9338 15.4673 4.20592 15.4673 4.20592C16.0192 5.60282 15.6718 6.63465 15.567 6.88986C16.2177 7.59972 16.6107 8.50479 16.6107 9.61183C16.6107 13.5068 14.2386 14.3645 11.9806 14.6155C12.3439 14.9299 12.6761 15.5468 12.6761 16.4932V19.2761C12.6761 19.5456 12.8383 19.8625 13.353 19.7628C17.3797 18.42 20.2817 14.6197 20.2817 10.1408C20.2817 4.54056 15.7411 0 10.1408 0Z" fill="white"/>
</svg>
