<svg width="32" height="32" viewBox="0 0 32 32" fill="none" xmlns="http://www.w3.org/2000/svg">
<rect width="32" height="32" rx="4" fill="#5E58DB"/>
<path d="M13.2715 23.0577C12.8246 23.0577 12.3756 22.888 12.034 22.5464L6.88203 17.3944C6.19883 16.7112 6.19883 15.6048 6.88203 14.9216C7.56523 14.2384 8.67168 14.2384 9.35488 14.9216L14.5068 20.0735C15.19 20.7567 15.19 21.8632 14.5068 22.5464C14.1652 22.888 13.7184 23.0577 13.2715 23.0577Z" fill="white"/>
<path d="M13.2629 23.0575C12.816 23.0575 12.367 22.8878 12.0254 22.5462C11.3422 21.863 11.3422 20.7565 12.0254 20.0733L22.643 9.45576C23.3262 8.77256 24.4326 8.77256 25.1158 9.45576C25.799 10.139 25.799 11.2454 25.1158 11.9286L14.5004 22.5462C14.1588 22.8878 13.7098 23.0575 13.2629 23.0575Z" fill="white"/>
</svg>
