<svg width="35" height="26" viewBox="0 0 35 26" fill="none" xmlns="http://www.w3.org/2000/svg">
<g clip-path="url(#clip0_979_1050)">
<path d="M3.30658 0.65625C1.86007 0.65625 0.687988 1.82764 0.687988 3.27329V22.7524C0.687988 24.1981 1.86007 25.3694 3.30658 25.3694H32.3813C33.8278 25.3694 34.9999 24.1981 34.9999 22.7524V3.27329C34.9999 1.82764 33.8278 0.65625 32.3813 0.65625H3.30658ZM13.0404 22.6247H3.42704V19.8789H10.294V17.1342H6.17446V14.3894H13.0404V22.6247ZM32.2525 22.6247H15.7878V19.8789H29.5061V17.1342H25.4274V14.3894H32.2525V22.6247ZM22.6391 14.3894V17.1342H15.814V14.381H18.5615V14.3894H22.6391ZM22.6475 3.401H29.5135V6.14574H25.3939V8.89049H32.2609V11.6363H22.6475V3.401ZM13.0488 3.401H17.1265V3.39262H19.8739V6.14574H13.0488V3.401ZM3.43542 3.401H10.2605V6.14574H6.18179V8.89049H19.9001V11.6363H3.43542V3.401Z" fill="url(#paint0_linear_979_1050)"/>
</g>
<defs>
<linearGradient id="paint0_linear_979_1050" x1="17.844" y1="0.65625" x2="17.844" y2="25.3694" gradientUnits="userSpaceOnUse">
<stop stop-color="#FFD100"/>
<stop offset="1" stop-color="#F89542"/>
</linearGradient>
<clipPath id="clip0_979_1050">
<rect width="34.3119" height="24.7132" fill="white" transform="translate(0.687988 0.65625)"/>
</clipPath>
</defs>
</svg>
