<svg width="163" height="31" viewBox="0 0 163 31" fill="none" xmlns="http://www.w3.org/2000/svg">
<g clip-path="url(#clip0_104_2809)">
<path d="M3.23962 0.539062C1.48215 0.539062 0.0581055 1.96226 0.0581055 3.71869V27.3853C0.0581055 29.1417 1.48215 30.5649 3.23962 30.5649H38.5647C40.3221 30.5649 41.7462 29.1417 41.7462 27.3853V3.71869C41.7462 1.96226 40.3221 0.539062 38.5647 0.539062H3.23962ZM15.066 27.2301H3.38597V23.8941H11.7292V20.5593H6.72402V17.2245H15.066V27.2301ZM38.4081 27.2301H18.404V23.8941H35.0713V20.5593H30.1158V17.2245H38.4081V27.2301ZM26.7281 17.2245V20.5593H18.4358V17.2143H21.7739V17.2245H26.7281ZM26.7383 3.87385H35.0803V7.20865H30.0751V10.5434H38.4183V13.8795H26.7383V3.87385ZM15.0761 3.87385H20.0304V3.86368H23.3685V7.20865H15.0761V3.87385ZM3.39615 3.87385H11.6885V7.20865H6.73293V10.5434H23.4003V13.8795H3.39615V3.87385Z" fill="url(#paint0_linear_104_2809)"/>
</g>
<path d="M69.9909 18.7846V14.7438H54.3897V11.6667H62.9978V7.84349H54.3897V4.57981H63.899V0.539063H50.1012L50.1012 18.7846H69.9909Z" fill="#EEF2F9"/>
<path d="M69.9909 18.7846V0.539063H65.8578V18.7846H69.9909Z" fill="#EEF2F9"/>
<path d="M86.9706 0.539063H82.8996V5.01497C82.4645 4.20682 81.2215 3.11892 78.58 3.11892C74.2604 3.11892 71.2461 6.63126 71.2461 11.1072C71.2461 15.7385 74.3537 19.1576 78.7043 19.1576C80.7553 19.1576 82.3092 18.2251 82.9928 17.0129C82.9928 17.7278 83.0861 18.4738 83.1482 18.7846H87.0949C87.0327 18.1629 86.9706 17.044 86.9706 16.0182V0.539063ZM75.4103 11.1072C75.4103 8.37189 77.0884 6.81776 79.2015 6.81776C81.3147 6.81776 82.9618 8.34081 82.9618 11.0761C82.9618 13.8424 81.3147 15.4587 79.2015 15.4587C77.0262 15.4587 75.4103 13.8424 75.4103 11.1072Z" fill="#EEF2F9"/>
<path d="M96.3021 15.4898C94.2822 15.4898 92.4176 13.9979 92.4176 11.1383C92.4176 8.24756 94.2822 6.78668 96.3021 6.78668C98.3221 6.78668 100.187 8.24756 100.187 11.1383C100.187 14.0289 98.3221 15.4898 96.3021 15.4898ZM96.3021 3.02568C91.734 3.02568 88.2845 6.41369 88.2845 11.1383C88.2845 15.8317 91.734 19.2508 96.3021 19.2508C100.87 19.2508 104.32 15.8317 104.32 11.1383C104.32 6.41369 100.87 3.02568 96.3021 3.02568Z" fill="#EEF2F9"/>
<path d="M114.885 3.42975C114.574 3.39867 114.264 3.36759 113.922 3.36759C112.617 3.36759 110.503 3.74058 109.571 5.76095V3.49192H105.562V18.7846H109.695V11.791C109.695 8.49623 111.529 7.4705 113.642 7.4705C114.015 7.4705 114.419 7.50158 114.885 7.59483V3.42975Z" fill="#EEF2F9"/>
<path d="M114.931 14.6195C114.931 17.0129 116.92 19.2197 120.183 19.2197C122.452 19.2197 123.912 18.1629 124.689 16.9507C124.689 17.5413 124.751 18.3805 124.845 18.7846H128.636C128.543 18.2562 128.449 17.1683 128.449 16.3601V8.83813C128.449 5.76095 126.647 3.02568 121.799 3.02568C117.697 3.02568 115.491 5.6677 115.242 8.06107L118.909 8.83813C119.033 7.50158 120.028 6.35152 121.83 6.35152C123.57 6.35152 124.41 7.25292 124.41 8.34081C124.41 8.86922 124.13 9.30437 123.26 9.4287L119.499 9.98819C116.951 10.3612 114.931 11.8842 114.931 14.6195ZM121.053 16.1426C119.717 16.1426 119.064 15.2722 119.064 14.3708C119.064 13.1897 119.903 12.5991 120.96 12.4437L124.41 11.9153V12.5991C124.41 15.3033 122.794 16.1426 121.053 16.1426Z" fill="#EEF2F9"/>
<path d="M145.11 0.539062H141.039V5.01497C140.604 4.20682 139.361 3.11892 136.719 3.11892C132.399 3.11892 129.385 6.63126 129.385 11.1072C129.385 15.7385 132.493 19.1576 136.843 19.1576C138.894 19.1576 140.448 18.2251 141.132 17.0129C141.132 17.7278 141.225 18.4738 141.287 18.7846H145.234C145.172 18.1629 145.11 17.044 145.11 16.0182V0.539062ZM133.549 11.1072C133.549 8.37189 135.227 6.81776 137.341 6.81776C139.454 6.81776 141.101 8.34081 141.101 11.0761C141.101 13.8424 139.454 15.4587 137.341 15.4587C135.165 15.4587 133.549 13.8424 133.549 11.1072Z" fill="#EEF2F9"/>
<path d="M154.441 15.4898C152.421 15.4898 150.557 13.9979 150.557 11.1383C150.557 8.24756 152.421 6.78668 154.441 6.78668C156.461 6.78668 158.326 8.24756 158.326 11.1383C158.326 14.0289 156.461 15.4898 154.441 15.4898ZM154.441 3.02568C149.873 3.02568 146.424 6.41369 146.424 11.1383C146.424 15.8317 149.873 19.2508 154.441 19.2508C159.009 19.2508 162.459 15.8317 162.459 11.1383C162.459 6.41369 159.009 3.02568 154.441 3.02568Z" fill="#EEF2F9"/>
<path d="M57.6983 29.8691V28.4209H51.6385V26.5939H54.7243V25.2237H51.6385V23.419H57.754V21.9708H50.1012V29.8691H57.6983Z" fill="#EEF2F9"/>
<path d="M62.9675 21.9708H61.1739L59.4472 24.7001L57.754 21.9708H55.9047L58.4892 25.9144L55.8936 29.8691H57.6983L59.4138 27.1398L61.1182 29.8691H62.9786L60.383 25.9255L62.9675 21.9708Z" fill="#EEF2F9"/>
<path d="M67.2541 30.0362C69.4709 30.0362 70.6072 28.5657 70.908 27.3514L69.4709 26.917C69.2593 27.6522 68.602 28.5323 67.2541 28.5323C65.9841 28.5323 64.8032 27.6077 64.8032 25.9255C64.8032 24.132 66.0509 23.2853 67.2318 23.2853C68.602 23.2853 69.2147 24.1208 69.4041 24.8784L70.8523 24.4216C70.5404 23.1405 69.4152 21.8037 67.2318 21.8037C65.1152 21.8037 63.2102 23.4079 63.2102 25.9255C63.2102 28.4432 65.0483 30.0362 67.2541 30.0362Z" fill="#EEF2F9"/>
<path d="M78.7135 29.8691V21.9708H77.165V25.1457H73.7228V21.9708H72.1854V29.8691H73.7228V26.5939H77.165V29.8691H78.7135Z" fill="#EEF2F9"/>
<path d="M85.877 29.8691H87.548L84.5402 21.9708H82.7578L79.7277 29.8691H81.3542L82.0115 28.0644H85.2198L85.877 29.8691ZM83.6156 23.6752L84.7073 26.6608H82.5239L83.6156 23.6752Z" fill="#EEF2F9"/>
<path d="M95.2979 29.8691V21.9708H93.7606V27.1955L90.4743 21.9708H88.5582V29.8691H90.0955V24.2657L93.6826 29.8691H95.2979Z" fill="#EEF2F9"/>
<path d="M104.25 29.8691V25.7584H100.307V27.0952H102.802C102.713 27.6522 102.145 28.6325 100.685 28.6325C99.3596 28.6325 98.1899 27.7079 98.1899 25.9255C98.1899 24.054 99.4821 23.2408 100.674 23.2408C101.955 23.2408 102.612 24.054 102.813 24.7558L104.283 24.2322C103.894 23.018 102.746 21.8037 100.674 21.8037C98.5352 21.8037 96.6303 23.3745 96.6303 25.9255C96.6303 28.4766 98.4461 30.0362 100.574 30.0362C101.766 30.0362 102.546 29.5015 102.902 28.9667L103.002 29.8691H104.25Z" fill="#EEF2F9"/>
<path d="M110.748 29.8691V28.4209H109.181H107.339V26.5939H110.424V25.2237H107.339V23.419H110.748V21.9708H105.801V29.8691H109.181H110.748Z" fill="#EEF2F9"/>
<defs>
<linearGradient id="paint0_linear_104_2809" x1="20.9021" y1="0.539062" x2="20.9021" y2="30.5649" gradientUnits="userSpaceOnUse">
<stop stop-color="#FFD100"/>
<stop offset="1" stop-color="#F89542"/>
</linearGradient>
<clipPath id="clip0_104_2809">
<rect width="41.6881" height="30.0259" fill="white" transform="translate(0.0581055 0.539062)"/>
</clipPath>
</defs>
</svg>
