<svg width="21" height="21" viewBox="0 0 21 21" fill="none" xmlns="http://www.w3.org/2000/svg">
<path d="M18.7658 8.53125H17.1504C16.9982 8.20312 16.7823 7.52063 16.506 7.03434L17.6469 5.92561C18.0072 5.56533 18.0075 4.99866 17.6475 4.63903L16.3452 3.34458C15.9856 2.98495 15.4025 2.98889 15.0422 3.34884L13.965 4.49137C13.4794 4.21542 12.7969 4.00116 12.4688 3.84891V2.23388C12.4688 1.72463 11.9293 1.3125 11.421 1.3125H9.57928C9.07069 1.3125 8.53125 1.72463 8.53125 2.23388V3.84923C8.20312 4.00148 7.52095 4.21739 7.03467 4.49334L5.92561 3.35245C5.56533 2.99217 4.99833 2.99217 4.63903 3.3518L3.34458 4.65445C2.98528 5.01375 2.98856 5.59683 3.34884 5.95744L4.4917 7.03467C4.21542 7.52095 4.00148 8.20312 3.84923 8.53125H2.2342C1.72463 8.53125 1.3125 9.07069 1.3125 9.57895V11.4207C1.3125 11.929 1.72463 12.4688 2.2342 12.4688H3.84956C4.00181 12.7969 4.21805 13.479 4.49367 13.9653L3.35278 15.0747C2.9925 15.435 2.9925 16.0013 3.35212 16.361L4.65445 17.6558C5.01375 18.015 5.59716 18.0114 5.95744 17.6512L7.03467 16.5083C7.52095 16.7843 8.20312 16.9985 8.53125 17.1508V18.7661C8.53125 19.2754 9.07069 19.6875 9.57895 19.6875H11.4207C11.929 19.6875 12.4688 19.2754 12.4688 18.7658V17.1504C12.7969 16.9982 13.479 16.782 13.9657 16.506L15.0747 17.6469C15.435 18.0072 16.0013 18.0072 16.361 17.6475L17.6558 16.3452C18.015 15.9856 18.0114 15.4025 17.6512 15.0422L16.5083 13.965C16.7843 13.4787 16.9985 12.7969 17.1508 12.4688H18.7661C19.2754 12.4688 19.6875 11.9293 19.6875 11.421V9.57928C19.6875 9.07069 19.2754 8.53125 18.7658 8.53125ZM10.5 14.6432C8.21133 14.6432 6.35611 12.788 6.35611 10.4997C6.35611 8.211 8.21133 6.35578 10.5 6.35578C12.789 6.35578 14.6439 8.211 14.6439 10.4997C14.6439 12.788 12.789 14.6432 10.5 14.6432Z" fill="#5E58DB"/>
</svg>
