<svg width="16" height="16" viewBox="0 0 16 16" fill="none" xmlns="http://www.w3.org/2000/svg">
<path d="M7.9987 14.6667C9.83963 14.6667 11.5063 13.9205 12.7127 12.714C13.9192 11.5076 14.6654 9.84093 14.6654 7.99999C14.6654 6.15906 13.9192 4.49239 12.7127 3.28595C11.5063 2.07952 9.83963 1.33333 7.9987 1.33333C6.15776 1.33333 4.4911 2.07952 3.28465 3.28595C2.07822 4.49239 1.33203 6.15906 1.33203 7.99999C1.33203 9.84093 2.07822 11.5076 3.28465 12.714C4.4911 13.9205 6.15776 14.6667 7.9987 14.6667Z" fill="#9B96FF"/>
<path fill-rule="evenodd" clip-rule="evenodd" d="M8.0013 3.66667C8.46154 3.66667 8.83464 4.03977 8.83464 4.50001C8.83464 4.96024 8.46154 5.33334 8.0013 5.33334C7.54107 5.33334 7.16797 4.96024 7.16797 4.50001C7.16797 4.03977 7.54107 3.66667 8.0013 3.66667Z" fill="#250C3B"/>
<path d="M8.16667 11.3333V6.66667H7.83333H7.5" stroke="#250C3B" stroke-linecap="round" stroke-linejoin="round"/>
<path d="M7 11.3333H9.33333" stroke="#250C3B" stroke-linecap="round" stroke-linejoin="round"/>
</svg>
