<svg width="17" height="14" viewBox="0 0 17 14" fill="none" xmlns="http://www.w3.org/2000/svg">
<path d="M16.2254 1.56101C15.6284 1.82603 14.9868 2.00451 14.3135 2.08496C15.001 1.67324 15.529 1.02085 15.7771 0.24338C15.1342 0.624676 14.4216 0.901859 13.6631 1.05127C13.0567 0.404282 12.1906 0 11.2334 0C9.08417 0 7.5049 2.00518 7.99031 4.08676C5.22456 3.94817 2.77183 2.6231 1.12969 0.609127C0.257577 2.10524 0.677409 4.06242 2.15932 5.05352C1.61442 5.03594 1.10062 4.88654 0.652394 4.63707C0.615887 6.17915 1.72124 7.62186 3.32214 7.94299C2.85363 8.07008 2.34051 8.09983 1.81859 7.99977C2.2418 9.32214 3.47087 10.2842 4.92845 10.3112C3.52901 11.4085 1.76586 11.8986 0 11.6904C1.47313 12.6348 3.22344 13.1858 5.10287 13.1858C11.2834 13.1858 14.7752 7.96597 14.5643 3.28428C15.2146 2.81442 15.7792 2.22828 16.2254 1.56101Z" fill="white"/>
</svg>
