<svg width="42" height="42" viewBox="0 0 42 42" fill="none" xmlns="http://www.w3.org/2000/svg">
<circle cx="21" cy="21" r="21" fill="#5E58DB"/>
<g clip-path="url(#clip0_979_1112)">
<path d="M26.3452 28.0005C25.4723 27.4662 24.6161 26.8936 23.7198 26.4104C22.9672 26.0068 23.0333 25.2578 23.7039 24.8962C24.4798 24.477 25.2089 23.9537 25.9564 23.4751C26.5818 23.0769 27.0107 23.3171 27.0835 24.1308C27.5513 24.0256 27.9856 23.7878 28.3427 23.4413C28.8011 23.0112 29.1277 22.4379 29.2785 21.7986C29.4292 21.1594 29.3969 20.4851 29.1858 19.8666C28.9747 19.2481 28.5951 18.7151 28.098 18.3397C27.601 17.9642 27.0105 17.7643 26.4062 17.7669C25.1186 17.7569 23.831 17.7669 22.5425 17.7615C22.2365 17.7673 21.9384 17.655 21.7007 17.4443C21.463 17.2336 21.301 16.9381 21.2432 16.6098C21.0851 15.8015 21.6378 14.9348 22.3895 14.9202C23.9087 14.8919 25.4338 14.8362 26.948 14.9412C29.4321 15.1147 31.5157 17.2783 31.9213 19.9643C32.0475 20.7633 32.0265 21.5817 31.8595 22.3716C31.6926 23.1616 31.3831 23.9072 30.9491 24.5649C30.5151 25.2226 29.9653 25.7791 29.332 26.2019C28.6987 26.6246 27.9945 26.9051 27.2607 27.0269C27.1545 27.0452 27.0726 27.0644 27.0818 27.2096C27.106 27.6206 26.9045 27.8626 26.5701 27.9996L26.3452 28.0005Z" fill="white"/>
<path d="M14.9648 14.9225C14.9648 14.8641 14.9732 14.8239 14.974 14.7828C14.9924 14.0987 15.4589 13.8037 16.0007 14.1435C16.8268 14.6549 17.6515 15.1685 18.4748 15.6842C19.0325 16.034 19.0317 16.6459 18.4748 17.0039C17.6944 17.5026 16.9141 17.9997 16.1337 18.4953C15.4765 18.9136 15.0593 18.6917 14.9631 17.8213C14.7123 17.9264 14.4665 18.004 14.239 18.1309C13.1111 18.7428 12.4497 20.1667 12.663 21.4983C12.8912 22.9267 13.8904 23.9998 15.1713 24.188C15.3565 24.2141 15.5431 24.2275 15.7298 24.2281C16.984 24.2281 18.2449 24.2281 19.5033 24.2281C19.8449 24.2376 20.1697 24.3924 20.4082 24.6597C20.6468 24.927 20.7804 25.2855 20.7804 25.6588C20.7804 26.0321 20.6468 26.3907 20.4082 26.6579C20.1697 26.9252 19.8449 27.0801 19.5033 27.0895C18.0735 27.0895 16.6429 27.1233 15.2148 27.0658C12.7064 26.9653 10.4865 24.7706 10.0844 22.0618C9.5969 18.7739 11.4222 15.7929 14.3795 15.044C14.5626 14.9947 14.7549 14.9645 14.9648 14.9225Z" fill="white"/>
</g>
<defs>
<clipPath id="clip0_979_1112">
<rect width="22" height="14" fill="white" transform="translate(10 14)"/>
</clipPath>
</defs>
</svg>
