<svg width="42" height="42" viewBox="0 0 42 42" fill="none" xmlns="http://www.w3.org/2000/svg">
<circle cx="21" cy="21" r="21" fill="#5E58DB"/>
<path d="M11.679 14C10.7515 14 10 14.711 10 15.5884V27.4116C10 28.289 10.7515 29 11.679 29H30.321C31.2485 29 32 28.289 32 27.4116V15.5884C32 14.711 31.2485 14 30.321 14H11.679ZM17.9201 27.334H11.7562V25.6674H16.1592V24.0015H13.5178V22.3355H17.9201V27.334ZM30.2384 27.334H19.6817V25.6674H28.4775V24.0015H25.8623V22.3355H30.2384V27.334ZM24.0745 22.3355V24.0015H19.6985V22.3304H21.46V22.3355H24.0745ZM24.0799 15.666H28.4822V17.3319H25.8408V18.9979H30.2438V20.6645H24.0799V15.666ZM17.9255 15.666H20.54V15.6609H22.3015V17.3319H17.9255V15.666ZM11.7616 15.666H16.1377V17.3319H13.5225V18.9979H22.3183V20.6645H11.7616V15.666Z" fill="white"/>
</svg>
