<svg width="42" height="42" viewBox="0 0 42 42" fill="none" xmlns="http://www.w3.org/2000/svg">
<circle cx="21" cy="21" r="21" fill="#5E58DB"/>
<g clip-path="url(#clip0_979_1150)">
<path d="M32.0001 13.2176C31.9731 13.6019 31.9405 13.9862 31.92 14.3705C31.8846 15.0458 31.8576 15.7175 31.8268 16.3963C31.8128 16.6746 31.7337 16.9234 31.4812 17.0967C31.2017 17.2861 30.9315 17.2915 30.68 17.0697C30.3623 16.7914 30.0613 16.496 29.7567 16.2041C29.682 16.1183 29.6127 16.0284 29.5489 15.9348C29.4968 16.0258 29.4369 16.1126 29.3701 16.1943C26.5521 18.912 23.7326 21.6295 20.9116 24.3466C20.4551 24.7866 19.9362 24.88 19.4592 24.6007C19.3394 24.5273 19.229 24.4405 19.1303 24.3421C18.0645 23.3197 17.0012 22.2954 15.9403 21.2694C15.8852 21.2063 15.8351 21.1394 15.7903 21.0691C15.6972 21.1589 15.6347 21.2038 15.5807 21.2559C14.4627 22.3334 13.3391 23.411 12.2268 24.4885C11.8886 24.8171 11.5057 25.0102 11.0333 24.8674C10.7951 24.8004 10.5788 24.6757 10.4049 24.5051C10.231 24.3345 10.1054 24.1238 10.0402 23.8931C9.947 23.5744 10.0299 23.2781 10.2265 23.0141C10.2918 22.9318 10.3641 22.8549 10.4426 22.7842C11.9109 21.3691 13.3798 19.9548 14.8493 18.5415C15.4503 17.9632 16.0605 17.965 16.6605 18.5459L19.8505 21.6187C19.9054 21.6717 19.9622 21.7219 19.9967 21.7534L27.7769 14.2745C27.4341 13.953 27.0791 13.6333 26.7409 13.2984C26.4614 13.0201 26.44 12.7237 26.6599 12.4409C26.8052 12.2532 27.0139 12.194 27.244 12.1823C28.0946 12.1419 28.9452 12.0997 29.7958 12.0602C30.2169 12.0404 30.6427 12.0341 31.0638 12.0045C31.4998 11.974 31.838 12.0943 31.9955 12.5145L32.0001 13.2176Z" fill="white"/>
<path d="M29.5572 17.8369C29.7631 17.951 29.8283 18.1063 29.8274 18.3326C29.8199 22.0273 29.8181 25.7229 29.8218 29.4194C29.8272 29.5158 29.8212 29.6125 29.8041 29.7076C29.7556 29.9105 29.6028 30.0003 29.3951 30.0012C28.9796 30.0012 28.565 30.0012 28.1495 30.0012C27.6986 30.0012 27.2476 30.0012 26.7976 30.0012C26.4101 30.0012 26.2769 29.8737 26.2769 29.5074C26.2769 26.716 26.2769 23.9237 26.2769 21.1305C26.2774 21.0439 26.3105 20.9603 26.37 20.8953C27.4023 19.8914 28.4383 18.8908 29.478 17.8935C29.5033 17.8732 29.5297 17.8543 29.5572 17.8369Z" fill="white"/>
<path d="M24.9063 22.3135V29.4197C24.9063 29.8795 24.7879 29.9953 24.3119 29.9953C23.5175 29.9953 22.7228 29.9953 21.9278 29.9953C21.4619 29.9953 21.3492 29.8831 21.3492 29.4278C21.3492 28.2273 21.3492 27.0267 21.3492 25.8271C21.3435 25.7735 21.3534 25.7194 21.3778 25.6709C21.4021 25.6224 21.44 25.5813 21.4871 25.5523C21.6207 25.4588 21.7455 25.3539 21.8598 25.2389C22.8082 24.3284 23.7554 23.4167 24.7013 22.5038C24.7469 22.4545 24.8038 22.4042 24.9063 22.3135Z" fill="white"/>
<path d="M16.434 23.54L17.2828 24.3599C17.5967 24.6625 17.9144 24.9606 18.2237 25.2677C18.6431 25.7106 19.2232 25.981 19.8439 26.0228C19.8793 26.0228 19.9128 26.0363 19.9622 26.0453C19.9622 26.1153 19.9715 26.1818 19.9715 26.2482C19.9715 27.3257 19.9715 28.4015 19.9715 29.4754C19.9715 29.8714 19.8429 29.998 19.4358 29.9989C18.5992 29.9989 17.7607 29.9989 16.9203 29.9989C16.5654 29.9989 16.4154 29.8624 16.4154 29.5275C16.4117 27.5766 16.4117 25.6253 16.4154 23.6738C16.4182 23.6469 16.4284 23.6218 16.434 23.54Z" fill="white"/>
<path d="M15.0308 23.5986C15.0364 23.701 15.043 23.7674 15.043 23.833C15.043 25.7025 15.043 27.572 15.043 29.4415C15.043 29.8905 14.9293 29.9991 14.4579 29.9991C13.656 29.9991 12.8539 29.9991 12.0514 29.9991C11.621 29.9991 11.498 29.8815 11.4924 29.4756C11.4924 28.4472 11.4924 27.4193 11.4924 26.3921V26.2062C11.7281 26.1443 11.9583 26.0949 12.1772 26.0266C12.5353 25.9012 12.8575 25.6956 13.1172 25.4268C13.6955 24.8725 14.2728 24.3167 14.8492 23.7594C14.9032 23.7118 14.9544 23.6678 15.0308 23.5986Z" fill="white"/>
</g>
<defs>
<clipPath id="clip0_979_1150">
<rect width="22" height="18" fill="white" transform="translate(10 12)"/>
</clipPath>
</defs>
</svg>
