<svg width="42" height="42" viewBox="0 0 42 42" fill="none" xmlns="http://www.w3.org/2000/svg">
<circle cx="21" cy="21" r="21" fill="#5E58DB"/>
<g clip-path="url(#clip0_979_1131)">
<path d="M20.4981 10H21.498C21.939 10.0829 22.3878 10.1382 22.8203 10.2542C25.4258 10.9507 27.4139 13.2984 27.6223 15.9417C27.6769 16.6329 27.6559 17.3341 27.659 18.0314C27.6539 18.0937 27.6667 18.1562 27.696 18.2117C27.7253 18.2673 27.7698 18.3136 27.8245 18.3455C28.573 18.86 28.9875 19.5742 28.9953 20.4743C29.0062 23.1191 29.0062 25.764 28.9953 28.4089C28.9902 29.0938 28.711 29.7492 28.2182 30.2331C27.7254 30.7169 27.0587 30.9902 26.3625 30.9939C22.7875 31.0015 19.2125 31.0015 15.6375 30.9939C14.6712 30.9939 13.9086 30.5561 13.4106 29.7421C13.2162 29.4295 13.1327 29.0455 13 28.7007V20.1702C13.0128 20.1545 13.0229 20.1369 13.0297 20.1179C13.1561 19.3392 13.5667 18.7425 14.2247 18.2994C14.257 18.2689 14.2827 18.2323 14.3003 18.1918C14.3178 18.1513 14.3269 18.1077 14.327 18.0636C14.3457 17.354 14.316 16.6406 14.3722 15.9348C14.5806 13.3299 16.5258 10.9984 19.0775 10.2865C19.5411 10.1574 20.0251 10.0937 20.4981 10ZM24.9606 17.8663C24.9606 17.2519 25.0262 16.6483 24.9481 16.0646C24.7405 14.5087 23.8592 13.4167 22.3722 12.876C20.8853 12.3354 19.4927 12.6257 18.3008 13.664C17.0012 14.7967 16.8911 16.2973 17.0261 17.8663H24.9606ZM22.3309 27.0527C22.3309 26.4928 22.3246 25.9545 22.3363 25.4161C22.3429 25.3059 22.3862 25.2009 22.4597 25.1174C22.8017 24.7536 22.9915 24.2761 22.9911 23.7805C22.9906 23.2848 22.7999 22.8077 22.4571 22.4445C22.1143 22.0813 21.6447 21.8589 21.1424 21.8218C20.6401 21.7847 20.142 21.9357 19.748 22.2444C18.9284 22.8918 18.7332 24.0645 19.3717 24.8801C19.6231 25.1996 19.684 25.5021 19.6676 25.8669C19.6551 26.201 19.6676 26.5358 19.6676 26.8699C19.6676 26.929 19.6754 26.9881 19.6793 27.0527H22.3309Z" fill="white"/>
</g>
<defs>
<clipPath id="clip0_979_1131">
<rect width="16" height="21" fill="white" transform="translate(13 10)"/>
</clipPath>
</defs>
</svg>
