<svg width="50" height="50" viewBox="0 0 50 50" fill="none" xmlns="http://www.w3.org/2000/svg">
<circle cx="25" cy="25" r="25" fill="#383838"/>
<g clip-path="url(#clip0_1558_995)">
<path d="M11.3658 14C10.0589 14 9 15.0428 9 16.3297V33.6703C9 34.9572 10.0589 36 11.3658 36H37.6342C38.9411 36 40 34.9572 40 33.6703V16.3297C40 15.0428 38.9411 14 37.6342 14H11.3658ZM20.1601 33.5566H11.4747V31.1122H17.6788V28.6688H13.9569V26.2254H20.1601V33.5566ZM37.5178 33.5566H22.6423V31.1122H35.0365V28.6688H31.3515V26.2254H37.5178V33.5566ZM28.8323 26.2254V28.6688H22.666V26.218H25.1482V26.2254H28.8323ZM28.8399 16.4434H35.0431V18.8868H31.3212V21.3302H37.5253V23.7746H28.8399V16.4434ZM20.1677 16.4434H23.8518V16.436H26.334V18.8868H20.1677V16.4434ZM11.4822 16.4434H17.6485V18.8868H13.9635V21.3302H26.3577V23.7746H11.4822V16.4434Z" fill="#F8C70D"/>
</g>
<defs>
<clipPath id="clip0_1558_995">
<rect width="31" height="22" fill="white" transform="translate(9 14)"/>
</clipPath>
</defs>
</svg>
