<svg width="24" height="24" viewBox="0 0 24 24" fill="none" xmlns="http://www.w3.org/2000/svg">
<path d="M21.2717 13.8191C21.2717 13.6021 21.3579 13.3941 21.5114 13.2406C21.6648 13.0872 21.8729 13.0011 22.0898 13.0011C22.3068 13.0011 22.5149 13.0872 22.6683 13.2406C22.8218 13.3941 22.908 13.6021 22.908 13.8191V19.8415C22.9079 20.655 22.5846 21.4352 22.0094 22.0104C21.4341 22.5857 20.6539 22.909 19.8404 22.9091H4.15748C3.34394 22.909 2.56376 22.5857 1.98849 22.0104C1.41323 21.4352 1.08999 20.655 1.08984 19.8415V4.15855C1.08955 3.34563 1.41206 2.56586 1.98647 1.99062C2.56088 1.41539 3.3402 1.09178 4.15312 1.09091H10.9369C11.1539 1.09095 11.362 1.17717 11.5154 1.3306C11.6688 1.48404 11.755 1.69212 11.755 1.90909C11.755 2.12607 11.6688 2.33415 11.5154 2.48759C11.362 2.64102 11.1539 2.72724 10.9369 2.72728H4.15312C3.77419 2.72814 3.41109 2.87935 3.14355 3.14771C2.87602 3.41606 2.72592 3.77962 2.72621 4.15855V19.8415C2.72635 20.221 2.87719 20.585 3.14558 20.8534C3.41396 21.1217 3.77793 21.2726 4.15748 21.2727H19.8404C20.2199 21.2726 20.5839 21.1217 20.8523 20.8534C21.1207 20.585 21.2715 20.221 21.2717 19.8415V13.8196V13.8191Z" fill="#EEF2F9" fill-opacity="0.5"/>
<path d="M9.61488 13.1575L9.18615 15.552L11.5382 15.0911L20.8163 5.81292L18.8876 3.88419L9.61488 13.1569V13.1575ZM8.27633 12.1816L17.9238 2.53419C18.1795 2.27855 18.5263 2.13493 18.8879 2.13493C19.2495 2.13493 19.5963 2.27855 19.852 2.53419L22.1663 4.84855C22.293 4.97518 22.3935 5.12552 22.462 5.29099C22.5306 5.45646 22.5659 5.63381 22.5659 5.81292C22.5659 5.99202 22.5306 6.16937 22.462 6.33484C22.3935 6.50031 22.293 6.65065 22.1663 6.77728L12.5183 16.4236C12.4034 16.5387 12.2568 16.617 12.0972 16.6484L8.32706 17.3875C8.19654 17.413 8.06174 17.4064 7.93436 17.3681C7.80698 17.3299 7.69084 17.2611 7.59601 17.1679C7.50119 17.0746 7.43053 16.9596 7.39016 16.8329C7.34979 16.7061 7.34092 16.5715 7.36433 16.4406L8.04888 12.6158C8.07829 12.4511 8.15748 12.2994 8.27579 12.1811L8.27633 12.1816Z" fill="#EEF2F9" fill-opacity="0.5"/>
</svg>
