<svg width="36" height="36" viewBox="0 0 36 36" fill="none" xmlns="http://www.w3.org/2000/svg">
<path fill-rule="evenodd" clip-rule="evenodd" d="M16.4303 23.2371H17.4768V25.332H19.5697V23.2371H22.7091V16.9526H15.3839V14.8578H22.7091V12.763H19.5697V10.6681H17.4768V12.763H13.2909V19.0475H20.6162V21.1423H16.4303V23.2371ZM36 18C36 27.9411 27.9411 36 18 36C8.05887 36 0 27.9411 0 18C0 8.05887 8.05887 0 18 0C27.9411 0 36 8.05887 36 18ZM33.0811 18C33.0811 26.3291 26.3291 33.0811 18 33.0811C9.67095 33.0811 2.91892 26.3291 2.91892 18C2.91892 9.67095 9.67095 2.91892 18 2.91892C26.3291 2.91892 33.0811 9.67095 33.0811 18Z" fill="#5E58DB"/>
<path fill-rule="evenodd" clip-rule="evenodd" d="M18.0001 28.7822C20.6396 28.7822 23.0559 27.8343 24.9301 26.2596C25.234 26.0042 25.6874 26.0437 25.9427 26.3476C26.198 26.6515 26.1586 27.105 25.8547 27.3603C23.7312 29.1445 20.9903 30.2198 18.0001 30.2198C15.0099 30.2198 12.269 29.1445 10.1455 27.3603C9.84163 27.105 9.80221 26.6515 10.0575 26.3476C10.3128 26.0437 10.7662 26.0042 11.0701 26.2596C12.9443 27.8343 15.3606 28.7822 18.0001 28.7822ZM25.9427 9.6523C25.6874 9.95624 25.234 9.99569 24.9301 9.74034C23.0559 8.16558 20.6396 7.21773 18.0001 7.21773C15.3606 7.21773 12.9443 8.16558 11.0701 9.74034C10.7662 9.99569 10.3128 9.95624 10.0575 9.6523C9.80221 9.34837 9.84163 8.89493 10.1455 8.6396C12.269 6.85537 15.0099 5.7801 18.0001 5.7801C20.9903 5.7801 23.7312 6.85537 25.8547 8.6396C26.1586 8.89493 26.198 9.34837 25.9427 9.6523Z" fill="#5E58DB"/>
<path fill-rule="evenodd" clip-rule="evenodd" d="M18.0001 28.2957C20.5209 28.2957 22.8273 27.391 24.6171 25.8871C25.1268 25.4588 25.8871 25.525 26.3152 26.0347C26.7433 26.5444 26.6772 27.3046 26.1676 27.7328C23.9598 29.5879 21.109 30.7063 18.0001 30.7063C14.8912 30.7063 12.0404 29.5879 9.83255 27.7328C9.323 27.3046 9.25688 26.5444 9.68497 26.0347C10.1131 25.525 10.8734 25.4588 11.383 25.8871C13.1728 27.391 15.4793 28.2957 18.0001 28.2957ZM24.6171 10.1128C22.8274 8.60894 20.5209 7.70421 18.0001 7.70421C15.4793 7.70421 13.1728 8.60894 11.383 10.1128C10.8734 10.541 10.1131 10.4748 9.68498 9.9652C9.25688 9.45554 9.323 8.69528 9.83255 8.26713C12.0404 6.41203 14.8912 5.29361 18.0001 5.29361C21.109 5.29361 23.9598 6.41203 26.1676 8.26714C26.6772 8.69528 26.7433 9.45554 26.3152 9.9652C25.8871 10.4748 25.1268 10.5411 24.6171 10.1128ZM24.9301 26.2596C23.0559 27.8343 20.6396 28.7822 18.0001 28.7822C15.3606 28.7822 12.9443 27.8343 11.0701 26.2596C10.7662 26.0042 10.3128 26.0437 10.0575 26.3476C9.80221 26.6515 9.84163 27.105 10.1455 27.3603C12.269 29.1445 15.0099 30.2198 18.0001 30.2198C20.9903 30.2198 23.7312 29.1445 25.8547 27.3603C26.1586 27.105 26.198 26.6515 25.9427 26.3476C25.6874 26.0437 25.234 26.0042 24.9301 26.2596ZM24.9301 9.74034C25.234 9.99569 25.6874 9.95624 25.9427 9.6523C26.198 9.34837 26.1586 8.89493 25.8547 8.6396C23.7312 6.85537 20.9903 5.7801 18.0001 5.7801C15.0099 5.7801 12.269 6.85537 10.1455 8.6396C9.84163 8.89493 9.80221 9.34837 10.0575 9.6523C10.3128 9.95624 10.7662 9.99569 11.0701 9.74034C12.9443 8.16558 15.3606 7.21773 18.0001 7.21773C20.6396 7.21773 23.0559 8.16558 24.9301 9.74034Z" fill="#5E58DB"/>
</svg>
