<svg width="42" height="42" viewBox="0 0 42 42" fill="none" xmlns="http://www.w3.org/2000/svg">
<circle cx="21" cy="21" r="21" fill="#5E58DB"/>
<g clip-path="url(#clip0_1386_1626)">
<path d="M15.3486 14C15.5586 14.0564 15.7743 14.097 15.9782 14.1714C17.1592 14.6028 17.9137 15.8017 17.8003 17.0558C17.7454 17.6839 17.485 18.275 17.0608 18.7347C16.6366 19.1943 16.073 19.496 15.4604 19.5912C15.4253 19.602 15.3909 19.6147 15.3572 19.6293C16.911 19.8383 17.9975 20.6388 18.6859 22.0347C17.1609 23.1132 16.3221 24.5763 16.2666 26.4914H11.0103C11.007 26.4295 11.0012 26.3693 11.0012 26.3091C11 25.4613 11 24.614 11 23.7662C11.007 21.6572 12.4634 19.962 14.523 19.6665C14.574 19.659 14.6233 19.6418 14.7314 19.6147C13.8881 19.4788 13.2553 19.098 12.7868 18.4442C11.5938 16.7762 12.5908 14.3503 14.5974 14.0393C14.6434 14.0292 14.6887 14.0161 14.733 14H15.3486Z" fill="white"/>
<path d="M31.9985 26.5064H26.7384C26.6837 24.5968 25.8549 23.1257 24.3184 22.0359C24.9976 20.6405 26.0854 19.8387 27.6022 19.6201C26.8107 19.4792 26.1771 19.098 25.7086 18.4433C24.5148 16.7753 25.5117 14.3503 27.5167 14.0393C27.5626 14.0292 27.6078 14.0161 27.6519 14H28.2683C28.3128 14.0162 28.3582 14.0293 28.4044 14.0393C30.1858 14.3156 31.2427 16.3109 30.478 17.9714C30.0506 18.9011 29.3175 19.4316 28.3263 19.6063C28.337 19.6193 28.3435 19.6356 28.3538 19.6385C28.3998 19.6502 28.4467 19.659 28.4935 19.6669C30.065 19.9307 31.1601 20.8073 31.747 22.3135C31.8703 22.6254 31.9175 22.9669 31.9997 23.2946L31.9985 26.5064Z" fill="white"/>
<path d="M17.5172 29C17.5094 28.9509 17.5043 28.9013 17.502 28.8516C17.5065 27.9766 17.4937 27.1009 17.5217 26.2267C17.5792 24.42 19.0833 22.7495 20.8474 22.5024L21.2489 22.4448C19.4926 22.2019 18.5926 20.7078 18.752 19.2811C18.9061 17.9015 20.0942 16.8272 21.4906 16.8171C22.8869 16.8071 24.0943 17.8974 24.2484 19.2836C24.4078 20.7166 23.4988 22.2056 21.7363 22.4485C22.8068 22.5392 23.7088 22.961 24.4337 23.757C25.1414 24.5358 25.487 25.4638 25.4968 26.5202C25.5038 27.3053 25.4989 28.0899 25.4968 28.875C25.4939 28.9172 25.4881 28.9591 25.4796 29.0004L17.5172 29Z" fill="white"/>
</g>
<defs>
<clipPath id="clip0_1386_1626">
<rect width="21" height="15" fill="white" transform="translate(11 14)"/>
</clipPath>
</defs>
</svg>
