<svg width="42" height="42" viewBox="0 0 42 42" fill="none" xmlns="http://www.w3.org/2000/svg">
<circle cx="21" cy="21" r="21" fill="#5E58DB"/>
<g clip-path="url(#clip0_1386_1662)">
<path d="M24.7385 10C25.0147 10.1208 25.206 10.3102 25.1952 10.6434C25.1909 10.7991 25.1281 10.947 25.0201 11.0559C24.912 11.1648 24.7672 11.2263 24.6162 11.2273C23.8096 11.2347 23.003 11.2334 22.1965 11.2273C21.8988 11.2252 21.6688 11.0136 21.6115 10.7149C21.5608 10.4511 21.7083 10.1742 21.9661 10.0493C22.0016 10.0329 22.0375 10.0168 22.0733 10H24.7385Z" fill="white"/>
<path d="M21.6018 24.219C21.6018 22.2107 21.6018 20.2022 21.6018 18.1936C21.6018 17.6504 21.8213 17.4269 22.3529 17.4269C23.0753 17.4269 23.7975 17.4269 24.5196 17.4269C24.958 17.4269 25.2002 17.671 25.2006 18.1217C25.2022 22.1794 25.2022 26.2375 25.2006 30.2958C25.2006 30.7605 24.9615 30.9984 24.5096 30.9988C23.7743 30.9988 23.0389 30.9988 22.3035 30.9988C21.8305 30.9988 21.6018 30.7596 21.6018 30.265C21.6015 28.2498 21.6015 26.2345 21.6018 24.219Z" fill="white"/>
<path d="M29.9987 26.6875C29.9987 27.8771 29.9987 29.0664 29.9987 30.2555C29.9987 30.7777 29.7815 30.9988 29.2711 30.9992C28.5418 30.9992 27.8125 30.9992 27.0833 30.9992C26.6449 30.9992 26.4086 30.7551 26.4082 30.3028C26.4082 27.8967 26.4082 25.4906 26.4082 23.0846C26.4082 22.6277 26.6397 22.3861 27.0777 22.3841C27.8335 22.3821 28.5893 22.3821 29.3452 22.3841C29.7624 22.3841 29.9971 22.6261 29.9983 23.0583C30.0004 24.2684 30.0006 25.4782 29.9987 26.6875Z" fill="white"/>
<path d="M20.3995 27.5162C20.3995 28.4382 20.3995 29.3601 20.3995 30.2818C20.3995 30.7584 20.1644 30.9984 19.7018 30.9988C18.9598 30.9988 18.2179 30.9988 17.4761 30.9988C17.0402 30.9988 16.8011 30.7551 16.7987 30.3003C16.7963 28.4426 16.7963 26.5852 16.7987 24.7281C16.7987 24.2761 17.0402 24.0296 17.4761 24.0296C18.2245 24.0279 18.9729 24.0279 19.7213 24.0296C20.1557 24.0296 20.3987 24.2802 20.3987 24.7281C20.4011 25.6587 20.3995 26.5873 20.3995 27.5162Z" fill="white"/>
<path d="M15.5917 28.3474C15.5917 29.0048 15.5917 29.6597 15.5917 30.3159C15.5917 30.7531 15.3506 30.9979 14.9238 30.9988C14.1683 30.9988 13.4126 30.9988 12.6567 30.9988C12.2411 30.9975 12.0024 30.7539 12 30.3245C12 28.9988 12.0007 27.6728 12.002 26.3465C12.002 25.9307 12.2411 25.685 12.648 25.6825C13.4102 25.6776 14.1725 25.6776 14.935 25.6825C15.359 25.685 15.5905 25.9348 15.5913 26.381C15.5929 27.0351 15.5917 27.6913 15.5917 28.3474Z" fill="white"/>
<path d="M13.7797 24.4368C13.4023 24.4368 13.0249 24.4368 12.6475 24.4368C12.2626 24.4343 11.9996 24.18 12.002 23.8168C12.0048 23.4622 12.265 23.2087 12.6396 23.2074C13.4079 23.2047 14.1762 23.2047 14.9445 23.2074C15.3287 23.2074 15.5949 23.4671 15.5921 23.8279C15.5893 24.1886 15.3235 24.4355 14.9338 24.4368C14.544 24.438 14.1639 24.4368 13.7797 24.4368Z" fill="white"/>
<path d="M23.3965 16.1857C23.0191 16.1857 22.6413 16.1857 22.2639 16.1857C21.8802 16.1832 21.606 15.9284 21.6016 15.5751C21.5972 15.2218 21.867 14.9588 22.252 14.9588C23.0198 14.9561 23.7879 14.9561 24.5565 14.9588C24.9303 14.9588 25.1941 15.2139 25.1977 15.5644C25.2017 15.9211 24.9311 16.1836 24.5485 16.1873C24.166 16.191 23.781 16.1857 23.3965 16.1857Z" fill="white"/>
<path d="M23.4052 13.7044C23.0211 13.7044 22.6373 13.7081 22.2532 13.7044C21.869 13.7007 21.598 13.4414 21.6016 13.0881C21.6052 12.7347 21.8778 12.4796 22.2639 12.478C23.0251 12.4749 23.7865 12.4749 24.5481 12.478C24.9335 12.478 25.2021 12.7417 25.1985 13.0988C25.1949 13.4488 24.9339 13.7007 24.5573 13.7056C24.1731 13.7085 23.7894 13.7044 23.4052 13.7044Z" fill="white"/>
<path d="M28.1951 18.657C27.8109 18.657 27.4267 18.6595 27.0426 18.657C26.6708 18.6542 26.4098 18.3982 26.4102 18.044C26.4106 17.6898 26.676 17.4306 27.0438 17.4277C27.8185 17.4244 28.5933 17.4244 29.3682 17.4277C29.7401 17.4298 29.9987 17.689 29.9983 18.044C29.9979 18.399 29.7408 18.6529 29.3671 18.6558C28.9769 18.6591 28.5856 18.657 28.1951 18.657Z" fill="white"/>
<path d="M18.5829 20.3079C18.2056 20.3079 17.8282 20.3112 17.4508 20.3079C17.0631 20.3034 16.7965 20.0466 16.8008 19.6896C16.8048 19.3399 17.0674 19.0827 17.4416 19.0802C18.2099 19.0753 18.978 19.0753 19.7458 19.0802C20.1279 19.0823 20.4009 19.3494 20.3973 19.7019C20.3937 20.0544 20.1319 20.2989 19.7549 20.3091H18.5829V20.3079Z" fill="white"/>
<path d="M18.6152 21.5586C18.9925 21.5586 19.3703 21.5561 19.7477 21.5586C20.1331 21.5619 20.4028 21.8207 20.3993 22.1749C20.3957 22.5291 20.1203 22.7855 19.7377 22.7867C18.9763 22.7889 18.2148 22.7889 17.4531 22.7867C17.0718 22.7867 16.7996 22.5213 16.8028 22.1655C16.806 21.8096 17.0698 21.5623 17.4432 21.5586C17.8321 21.5557 18.223 21.5586 18.6152 21.5586Z" fill="white"/>
<path d="M28.2222 14.9555C28.5996 14.9555 28.977 14.9526 29.3543 14.9555C29.7441 14.9592 30.0015 15.2094 29.9983 15.5743C29.9955 15.9289 29.7361 16.1824 29.3607 16.184C28.5929 16.1878 27.8249 16.1878 27.0566 16.184C26.6752 16.184 26.4066 15.9186 26.4102 15.5607C26.4138 15.2028 26.6732 14.9596 27.0502 14.9559C27.4407 14.9526 27.8313 14.9555 28.2222 14.9555Z" fill="white"/>
<path d="M13.7901 19.4817C13.4059 19.4817 13.0221 19.4841 12.638 19.4817C12.2618 19.4776 12.0044 19.2294 12.002 18.8748C11.9996 18.5202 12.2578 18.2585 12.6284 18.254C13.4031 18.2488 14.1778 18.2488 14.9525 18.254C15.3235 18.254 15.5877 18.5161 15.5901 18.8658C15.5929 19.2277 15.3307 19.4792 14.9417 19.4821C14.5528 19.4849 14.1742 19.4817 13.7901 19.4817Z" fill="white"/>
<path d="M18.6152 16.6031C18.993 16.6031 19.3704 16.6031 19.7478 16.6031C20.1252 16.6031 20.4021 16.8722 20.3969 17.2252C20.3918 17.5781 20.122 17.8312 19.7534 17.832C18.9851 17.8345 18.2167 17.8345 17.4484 17.832C17.069 17.832 16.7957 17.5658 16.8009 17.2104C16.806 16.8611 17.0734 16.6056 17.4432 16.6031C17.8346 16.601 18.2255 16.6031 18.6152 16.6031Z" fill="white"/>
<path d="M13.8074 20.7356C14.1912 20.7356 14.5754 20.7328 14.9591 20.7356C15.3242 20.7389 15.5812 20.9822 15.59 21.3281C15.5933 21.4107 15.5802 21.493 15.5515 21.5702C15.5228 21.6473 15.4792 21.7176 15.4232 21.7767C15.3672 21.8358 15.3001 21.8825 15.226 21.9139C15.1519 21.9452 15.0723 21.9607 14.9922 21.9592C14.1912 21.9718 13.3902 21.9718 12.5892 21.9592C12.2306 21.953 11.9915 21.6716 12.0002 21.3232C12.009 20.9748 12.2676 20.7389 12.6366 20.736C13.026 20.7332 13.4169 20.7356 13.8074 20.7356Z" fill="white"/>
<path d="M28.2096 19.9077C28.587 19.9077 28.9644 19.9053 29.3413 19.9077C29.7359 19.9106 29.9957 20.1542 29.9981 20.515C30.0005 20.8757 29.7446 21.1313 29.3517 21.1354C28.5837 21.1417 27.8157 21.1417 27.048 21.1354C26.6618 21.1321 26.402 20.8642 26.4104 20.5055C26.4179 20.1555 26.6789 19.9122 27.0587 19.909C27.4385 19.9057 27.8254 19.9077 28.2096 19.9077Z" fill="white"/>
</g>
<defs>
<clipPath id="clip0_1386_1662">
<rect width="18" height="21" fill="white" transform="translate(12 10)"/>
</clipPath>
</defs>
</svg>
