<svg width="180" height="130" viewBox="0 0 180 130" fill="none" xmlns="http://www.w3.org/2000/svg">
<path d="M84.1887 1.52588e-05H94.6848C95.8907 0.143712 97.0967 0.294418 98.3026 0.424096C113.055 2.00476 126.699 6.73273 138.969 15.1197C159.975 29.4894 173.023 49.1793 177.647 74.2947C178.253 77.6032 178.572 80.9538 179.028 84.3009V94.7943C178.646 97.7909 178.376 100.805 177.871 103.777C174.716 122.419 166.653 138.657 153.314 152.035C133.205 172.159 108.841 181.152 80.4937 178.601C62.9898 177.024 47.2107 170.561 33.6753 159.353C9.03727 138.955 -2.25105 112.637 0.371208 80.6945C1.57717 65.9147 6.62185 52.3056 15.004 40.0388C29.3703 19.0451 49.0687 6.00373 74.18 1.38091C77.4894 0.771071 80.8513 0.452134 84.1887 1.52588e-05ZM157.664 89.5441C157.664 52.0743 126.906 21.3337 89.4333 21.3407C51.9609 21.3477 21.209 52.0883 21.2125 89.5546C21.216 127.021 51.9679 157.761 89.4438 157.758C126.92 157.754 157.668 127.007 157.664 89.5441Z" fill="url(#paint0_linear_1386_1698)"/>
<path d="M84.1894 32.2652V42.2398H94.6224V32.3703C118.959 33.4218 144.449 54.7414 146.777 84.2694H136.778V94.7452H146.752C144.894 121.031 122.966 144.555 94.7591 146.883V136.887H84.207V146.802C59.0537 145.256 34.591 124.021 32.0879 94.8994H42.0616V84.343H32.2141C33.5953 58.6002 56.0493 34.2314 84.1894 32.2652ZM54.4717 61.9473C54.8468 62.3398 55.278 62.8095 55.7267 63.2581C61.8652 69.402 67.9967 75.5599 74.1632 81.6688C74.987 82.4819 75.1483 83.1128 74.7311 84.2273C72.2385 90.8584 74.4927 97.9906 80.3577 102.361C85.455 106.16 93.455 106.157 98.5417 102.361C104.407 97.9731 106.647 90.8584 104.151 84.2168C103.727 83.0952 103.93 82.4644 104.74 81.6653C110.957 75.5155 117.143 69.3366 123.299 63.1284C123.73 62.6973 124.137 62.2417 124.379 61.9824L117.041 54.6223C116.691 54.9728 116.217 55.3968 115.769 55.8419C109.62 61.9777 103.48 68.1216 97.3498 74.2737C96.5575 75.0728 95.93 75.3251 94.8012 74.8835C93.1027 74.1714 91.2793 73.8046 89.4375 73.8046C87.5956 73.8046 85.7723 74.1714 84.0738 74.8835C82.9274 75.3496 82.3209 75.0412 81.5321 74.2561C75.4147 68.0877 69.2622 61.9683 63.1238 55.8139C62.7371 55.3447 62.401 54.836 62.1211 54.2963L54.4717 61.9473Z" fill="url(#paint1_linear_1386_1698)"/>
<path d="M94.6756 89.6C94.6659 90.6356 94.3491 91.6452 93.7654 92.5008C93.1817 93.3565 92.3573 94.0199 91.3964 94.407C90.4355 94.7942 89.3814 94.8878 88.3673 94.676C87.3532 94.4641 86.4248 93.9564 85.6994 93.217C84.974 92.4775 84.4842 91.5396 84.2921 90.5219C84.0999 89.5041 84.214 88.4523 84.6198 87.4994C85.0257 86.5464 85.7051 85.7353 86.5722 85.1684C87.4392 84.6016 88.4549 84.3046 89.4909 84.3149C90.8755 84.3406 92.1947 84.9089 93.1644 85.8974C94.1341 86.8858 94.6768 88.2155 94.6756 89.6Z" fill="#2A2C6A"/>
<defs>
<linearGradient id="paint0_linear_1386_1698" x1="89.5141" y1="1.52588e-05" x2="89.5141" y2="179.024" gradientUnits="userSpaceOnUse">
<stop stop-color="#3D3F77"/>
<stop offset="1" stop-color="#2A2C6A" stop-opacity="0"/>
</linearGradient>
<linearGradient id="paint1_linear_1386_1698" x1="89.4322" y1="32.2652" x2="89.4322" y2="146.883" gradientUnits="userSpaceOnUse">
<stop stop-color="#3D3F77"/>
<stop offset="1" stop-color="#2A2C6A" stop-opacity="0"/>
</linearGradient>
</defs>
</svg>
