<svg width="310" height="210" viewBox="0 0 310 210" fill="none" xmlns="http://www.w3.org/2000/svg">
<path fill-rule="evenodd" clip-rule="evenodd" d="M228.784 222L211.267 200.4C246.036 190.534 259.307 168.667 259.307 168.667C248.425 175.867 238.074 180.934 228.784 184.4C215.514 190 202.774 193.734 190.3 195.867C164.82 200.667 141.464 199.334 121.558 195.6C106.43 192.667 93.4246 188.4 82.5428 184.134C76.4383 181.734 69.8031 178.8 63.1678 175.067L62.1062 174.458L61.8408 174.343L60.7791 173.734L59.7175 172.934L52.286 168.401C52.286 168.401 65.0257 189.734 98.7329 199.867L80.9503 222C22.2945 220.133 0 181.467 0 181.467C0 95.6012 38.2192 26.0019 38.2192 26.0019C76.4384 -2.79779 112.8 -1.99778 112.8 -1.99778L115.454 1.20217C67.6798 15.0687 45.6507 36.1352 45.6507 36.1352L61.3099 28.4019C89.7089 15.8687 112.269 12.4021 121.558 11.6021L126.07 11.0687C142.26 8.93542 160.574 8.40209 179.683 10.5354C204.897 13.4687 231.969 20.9353 259.572 36.1352C259.572 36.1352 238.604 16.1354 193.485 2.26882L197.2 -1.99778C197.2 -1.99778 233.562 -2.79779 271.781 26.0019C271.781 26.0019 310 95.6012 310 181.467C310 181.467 288.274 218.686 228.784 222ZM202.243 97.4679C187.115 97.4679 175.171 110.801 175.171 127.068C175.171 143.334 187.38 156.667 202.243 156.667C217.372 156.667 229.315 143.334 229.315 127.068C229.315 110.801 217.372 97.4679 202.243 97.4679ZM105.368 97.4679C90.2397 97.4679 78.2962 110.801 78.2962 127.068C78.2962 143.334 90.5051 156.667 105.368 156.667C120.497 156.667 132.44 143.334 132.44 127.068C132.705 110.801 120.497 97.4679 105.368 97.4679Z" fill="#2A2C6A"/>
</svg>
