<svg width="130" height="201" viewBox="0 0 130 201" fill="none" xmlns="http://www.w3.org/2000/svg">
<path fill-rule="evenodd" clip-rule="evenodd" d="M106.232 11.2825C113.809 15.8287 116.266 25.6566 111.72 33.2337L78.259 89.0004H114C119.764 89.0004 125.083 92.101 127.923 97.117C130.763 102.133 130.686 108.289 127.72 113.232L79.7199 193.23C75.1735 200.807 65.3454 203.264 57.7681 198.718C50.1908 194.171 47.7337 184.343 52.2801 176.766L85.7409 121H50C44.2356 121 38.9169 117.899 36.0768 112.883C33.2367 107.867 33.3144 101.711 36.2801 96.7683L84.2801 16.7703C88.8265 9.1932 98.6546 6.73622 106.232 11.2825Z" fill="#292A68"/>
<path fill-rule="evenodd" clip-rule="evenodd" d="M8.66544 0.832152C5.90289 2.48964 5.0071 6.07274 6.66463 8.83522L18.8639 29.1668H5.83334C3.73175 29.1668 1.79262 30.2972 0.757172 32.126C-0.278282 33.9548 -0.249966 36.1991 0.831295 38.0011L18.3313 67.1671C19.9888 69.9296 23.572 70.8253 26.3346 69.1678C29.0971 67.5104 29.9929 63.9273 28.3354 61.1648L16.1361 40.8332H29.1667C31.2683 40.8332 33.2074 39.7028 34.2428 37.874C35.2783 36.0452 35.25 33.8009 34.1687 31.9988L16.6687 2.83292C15.0112 0.0704365 11.428 -0.825337 8.66544 0.832152Z" fill="#292A68"/>
</svg>
