<svg width="163" height="31" viewBox="0 0 163 31" fill="none" xmlns="http://www.w3.org/2000/svg">
<g clip-path="url(#clip0_1023_883)">
<path d="M3.18152 0C1.42405 0 0 1.4232 0 3.17963V26.8462C0 28.6026 1.42405 30.0259 3.18152 30.0259H38.5065C40.264 30.0259 41.6881 28.6026 41.6881 26.8462V3.17963C41.6881 1.4232 40.264 0 38.5065 0H3.18152ZM15.0079 26.6911H3.32787V23.355H11.6711V20.0202H6.66592V16.6854H15.0079V26.6911ZM38.35 26.6911H18.3459V23.355H35.0132V20.0202H30.0577V16.6854H38.35V26.6911ZM26.67 16.6854V20.0202H18.3777V16.6752H21.7158V16.6854H26.67ZM26.6802 3.33479H35.0222V6.66958H30.017V10.0044H38.3602V13.3404H26.6802V3.33479ZM15.018 3.33479H19.9723V3.32462H23.3103V6.66958H15.018V3.33479ZM3.33805 3.33479H11.6304V6.66958H6.67482V10.0044H23.3422V13.3404H3.33805V3.33479Z" fill="white"/>
</g>
<path d="M69.9326 18.2455V14.2048H54.3315V11.1276H62.9396V7.30442H54.3315V4.04075H63.8408V4.74284e-07H50.043L50.043 18.2455H69.9326Z" fill="white"/>
<path d="M69.9326 18.2455V4.74284e-07H65.7995V18.2455H69.9326Z" fill="white"/>
<path d="M86.9123 4.74284e-07H82.8414V4.4759C82.4063 3.66776 81.1633 2.57986 78.5218 2.57986C74.2022 2.57986 71.1878 6.0922 71.1878 10.5681C71.1878 15.1994 74.2954 18.6185 78.6461 18.6185C80.6971 18.6185 82.2509 17.686 82.9346 16.4738C82.9346 17.1887 83.0278 17.9347 83.09 18.2455H87.0366C86.9745 17.6239 86.9123 16.5049 86.9123 15.4792V4.74284e-07ZM75.352 10.5681C75.352 7.83283 77.0301 6.2787 79.1433 6.2787C81.2565 6.2787 82.9035 7.80175 82.9035 10.537C82.9035 13.3034 81.2565 14.9197 79.1433 14.9197C76.968 14.9197 75.352 13.3034 75.352 10.5681Z" fill="white"/>
<path d="M96.2439 14.9508C94.224 14.9508 92.3594 13.4588 92.3594 10.5992C92.3594 7.7085 94.224 6.24762 96.2439 6.24762C98.2639 6.24762 100.128 7.7085 100.128 10.5992C100.128 13.4899 98.2639 14.9508 96.2439 14.9508ZM96.2439 2.48661C91.6757 2.48661 88.2263 5.87462 88.2263 10.5992C88.2263 15.2927 91.6757 18.7118 96.2439 18.7118C100.812 18.7118 104.262 15.2927 104.262 10.5992C104.262 5.87462 100.812 2.48661 96.2439 2.48661Z" fill="white"/>
<path d="M114.827 2.89069C114.516 2.85961 114.205 2.82852 113.864 2.82852C112.558 2.82852 110.445 3.20151 109.513 5.22189V2.95285H105.504V18.2455H109.637V11.2519C109.637 7.95716 111.471 6.93143 113.584 6.93143C113.957 6.93143 114.361 6.96252 114.827 7.05576V2.89069Z" fill="white"/>
<path d="M114.873 14.0804C114.873 16.4738 116.862 18.6807 120.125 18.6807C122.393 18.6807 123.854 17.6239 124.631 16.4116C124.631 17.0022 124.693 17.8414 124.786 18.2455H128.578C128.484 17.7171 128.391 16.6292 128.391 15.8211V8.29907C128.391 5.22189 126.589 2.48661 121.741 2.48661C117.639 2.48661 115.432 5.12864 115.184 7.522L118.851 8.29907C118.975 6.96252 119.97 5.81246 121.772 5.81246C123.512 5.81246 124.351 6.71385 124.351 7.80175C124.351 8.33015 124.072 8.76531 123.201 8.88964L119.441 9.44913C116.893 9.82212 114.873 11.3452 114.873 14.0804ZM120.995 15.6035C119.659 15.6035 119.006 14.7332 119.006 13.8318C119.006 12.6506 119.845 12.0601 120.902 11.9047L124.351 11.3763V12.0601C124.351 14.7643 122.735 15.6035 120.995 15.6035Z" fill="white"/>
<path d="M145.051 0H140.98V4.4759C140.545 3.66776 139.302 2.57986 136.661 2.57986C132.341 2.57986 129.327 6.0922 129.327 10.5681C129.327 15.1994 132.434 18.6185 136.785 18.6185C138.836 18.6185 140.39 17.686 141.074 16.4738C141.074 17.1887 141.167 17.9347 141.229 18.2455H145.176C145.114 17.6239 145.051 16.5049 145.051 15.4792V0ZM133.491 10.5681C133.491 7.83283 135.169 6.2787 137.282 6.2787C139.396 6.2787 141.043 7.80175 141.043 10.537C141.043 13.3034 139.396 14.9197 137.282 14.9197C135.107 14.9197 133.491 13.3034 133.491 10.5681Z" fill="white"/>
<path d="M154.383 14.9508C152.363 14.9508 150.498 13.4588 150.498 10.5992C150.498 7.7085 152.363 6.24762 154.383 6.24762C156.403 6.24762 158.267 7.7085 158.267 10.5992C158.267 13.4899 156.403 14.9508 154.383 14.9508ZM154.383 2.48661C149.815 2.48661 146.365 5.87462 146.365 10.5992C146.365 15.2927 149.815 18.7118 154.383 18.7118C158.951 18.7118 162.401 15.2927 162.401 10.5992C162.401 5.87462 158.951 2.48661 154.383 2.48661Z" fill="white"/>
<path d="M57.64 29.33V27.8818H51.5803V26.0549H54.6661V24.6846H51.5803V22.88H57.6957V21.4317H50.043V29.33H57.64Z" fill="white"/>
<path d="M62.9093 21.4317H61.1157L59.389 24.1611L57.6957 21.4317H55.8465L58.431 25.3753L55.8353 29.33H57.64L59.3556 26.6007L61.06 29.33H62.9204L60.3248 25.3865L62.9093 21.4317Z" fill="white"/>
<path d="M67.1958 29.4971C69.4127 29.4971 70.549 28.0266 70.8498 26.8124L69.4127 26.3779C69.201 27.1132 68.5438 27.9932 67.1958 27.9932C65.9259 27.9932 64.745 27.0686 64.745 25.3865C64.745 23.5929 65.9927 22.7463 67.1735 22.7463C68.5438 22.7463 69.1565 23.5818 69.3458 24.3393L70.7941 23.8826C70.4821 22.6015 69.357 21.2646 67.1735 21.2646C65.0569 21.2646 63.152 22.8688 63.152 25.3865C63.152 27.9041 64.9901 29.4971 67.1958 29.4971Z" fill="white"/>
<path d="M78.6553 29.33V21.4317H77.1068V24.6067H73.6645V21.4317H72.1272V29.33H73.6645V26.0549H77.1068V29.33H78.6553Z" fill="white"/>
<path d="M85.8188 29.33H87.4898L84.482 21.4317H82.6996L79.6695 29.33H81.296L81.9532 27.5253H85.1616L85.8188 29.33ZM83.5574 23.1362L84.6491 26.1217H82.4657L83.5574 23.1362Z" fill="white"/>
<path d="M95.2397 29.33V21.4317H93.7024V26.6564L90.4161 21.4317H88.5V29.33H90.0373V23.7266L93.6244 29.33H95.2397Z" fill="white"/>
<path d="M104.192 29.33V25.2194H100.248V26.5562H102.744C102.655 27.1132 102.086 28.0935 100.627 28.0935C99.3014 28.0935 98.1317 27.1689 98.1317 25.3865C98.1317 23.5149 99.4239 22.7017 100.616 22.7017C101.897 22.7017 102.554 23.5149 102.755 24.2168L104.225 23.6932C103.835 22.4789 102.688 21.2646 100.616 21.2646C98.477 21.2646 96.5721 22.8354 96.5721 25.3865C96.5721 27.9375 98.3879 29.4971 100.516 29.4971C101.708 29.4971 102.487 28.9624 102.844 28.4277L102.944 29.33H104.192Z" fill="white"/>
<path d="M110.689 29.33V27.8818H109.123H107.28V26.0549H110.366V24.6846H107.28V22.88H110.689V21.4317H105.743V29.33H109.123H110.689Z" fill="white"/>
<defs>
<clipPath id="clip0_1023_883">
<rect width="41.6881" height="30.0259" fill="white"/>
</clipPath>
</defs>
</svg>
